<?xml version="1.0" encoding="utf-8"?>
<!-- Generator: Adobe Illustrator 24.1.3, SVG Export Plug-In . SVG Version: 6.00 Build 0)  -->
<svg version="1.1" id="Calque_1" xmlns="http://www.w3.org/2000/svg" xmlns:xlink="http://www.w3.org/1999/xlink" x="0px" y="0px"
	 viewBox="0 0 85.039 19.843" style="enable-background:new 0 0 85.039 19.843;" xml:space="preserve">
<style type="text/css">
	.st0{fill:#AABCCE;}
	.st1{fill:#F91B24;}
</style>
<g>
	<path class="st0" d="M67.18,3.924l0.306-1.012c0.205-0.706,0.342-1.177,0.342-1.177c-1.511,0-2.01,0.509-2.259,1.147l-0.636,2.17
		C66.427,5.06,66.927,4.557,67.18,3.924z"/>
	<path class="st0" d="M78.769,3.924l0.306-1.012c0.205-0.706,0.342-1.177,0.342-1.177c-1.511,0-2.01,0.509-2.259,1.147l-0.636,2.17
		C78.016,5.06,78.516,4.557,78.769,3.924z"/>
	<g>
		<path class="st0" d="M71.691,1.735c-1.511,0-2.01,0.509-2.259,1.147L68.843,4.89c-0.006,0.015-0.012,0.029-0.018,0.044
			l-0.588,2.007c-0.006,0.015-0.012,0.029-0.018,0.044l-0.636,2.17c1.494,0.007,1.994-0.495,2.247-1.128l0.306-1.012
			c0.205-0.706,0.342-1.177,0.342-1.177c0,0,0,0,0,0l0.264-0.874c0.205-0.706,0.342-1.177,0.342-1.177c0,0,0,0,0,0l0.264-0.874
			C71.554,2.206,71.691,1.735,71.691,1.735z"/>
		<path class="st0" d="M75.554,1.735c-1.511,0-2.01,0.509-2.259,1.147L72.706,4.89c-0.006,0.015-0.012,0.029-0.018,0.044L72.1,6.941
			c-0.006,0.015-0.012,0.029-0.018,0.044l-0.636,2.17c1.494,0.007,1.994-0.495,2.247-1.128l0.306-1.012
			c0.205-0.706,0.342-1.177,0.342-1.177c0,0,0,0,0,0l0.264-0.874c0.205-0.706,0.342-1.177,0.342-1.177c0,0,0,0,0,0l0.264-0.874
			C75.417,2.206,75.554,1.735,75.554,1.735z"/>
	</g>
	<path class="st0" d="M77.827,7.097c-1.446,0-1.965,0.466-2.225,1.065c-0.013,0.022-0.024,0.049-0.034,0.082
		c-0.236,0.777-0.381,1.57-0.681,1.995c-0.824,1.169-2.337,1.261-3.234,1.261l-5.558,0.062c-1.541,0-1.863,1.809-1.863,1.809h7.02
		c5.071,0,5.369-1.927,5.818-3.564c0.195-0.712,0.41-1.491,0.557-2.026C77.751,7.357,77.827,7.097,77.827,7.097z"/>
</g>
<g>
	<path class="st1" d="M24.097,17.905l-0.092,0.329h-1.631l0.797-2.813h0.392l-0.706,2.484H24.097z"/>
	<path class="st1" d="M25.39,18.233h-0.375l0.6-2.11h0.375L25.39,18.233z M25.938,15.741c-0.062,0-0.113-0.019-0.153-0.057
		c-0.04-0.038-0.058-0.091-0.055-0.158c0.004-0.087,0.034-0.155,0.09-0.205c0.056-0.05,0.118-0.075,0.185-0.075
		c0.062,0,0.113,0.02,0.155,0.059s0.06,0.094,0.057,0.164c-0.004,0.081-0.035,0.147-0.094,0.197
		C26.065,15.716,26.003,15.741,25.938,15.741z"/>
	<path class="st1" d="M27.106,18.233c-0.026-0.138-0.05-0.289-0.072-0.455c-0.022-0.165-0.041-0.338-0.057-0.517
		c-0.016-0.18-0.028-0.366-0.035-0.558c-0.007-0.192-0.01-0.385-0.006-0.58h0.38c-0.003,0.133-0.004,0.274-0.001,0.424
		c0.003,0.15,0.007,0.3,0.014,0.451c0.007,0.15,0.016,0.295,0.029,0.434c0.013,0.139,0.027,0.266,0.043,0.38
		c0.085-0.103,0.175-0.224,0.269-0.363c0.094-0.139,0.185-0.285,0.272-0.438c0.088-0.153,0.169-0.306,0.243-0.461
		c0.074-0.154,0.134-0.296,0.181-0.426h0.379c-0.067,0.179-0.151,0.364-0.251,0.556c-0.1,0.192-0.208,0.381-0.322,0.566
		c-0.115,0.185-0.235,0.363-0.359,0.534c-0.125,0.171-0.245,0.322-0.362,0.455H27.106z"/>
	<path class="st1" d="M30.087,18.286c-0.137,0-0.255-0.02-0.353-0.059c-0.098-0.039-0.179-0.093-0.243-0.162
		c-0.064-0.069-0.11-0.15-0.139-0.242s-0.04-0.189-0.035-0.292c0.009-0.189,0.045-0.372,0.11-0.548
		c0.064-0.176,0.152-0.331,0.263-0.467c0.111-0.135,0.244-0.243,0.398-0.323c0.154-0.08,0.327-0.12,0.518-0.12
		c0.11,0,0.204,0.014,0.283,0.043c0.078,0.028,0.141,0.067,0.189,0.116c0.048,0.049,0.082,0.105,0.103,0.168
		c0.021,0.064,0.031,0.129,0.028,0.197c-0.006,0.127-0.034,0.235-0.083,0.323c-0.05,0.088-0.114,0.162-0.192,0.221
		c-0.078,0.06-0.168,0.106-0.271,0.138c-0.102,0.032-0.209,0.058-0.318,0.077c-0.11,0.019-0.221,0.032-0.333,0.039
		c-0.112,0.007-0.218,0.013-0.318,0.018c-0.004,0.022-0.006,0.039-0.007,0.053c-0.001,0.014-0.001,0.024-0.001,0.032
		c-0.003,0.062,0.002,0.121,0.014,0.177c0.012,0.055,0.038,0.104,0.076,0.146c0.038,0.042,0.093,0.075,0.163,0.099
		c0.07,0.024,0.163,0.037,0.279,0.037c0.051,0,0.104-0.005,0.16-0.014c0.056-0.009,0.109-0.022,0.159-0.037
		c0.05-0.015,0.095-0.03,0.135-0.044c0.04-0.015,0.068-0.029,0.085-0.043l0.018,0.321c-0.055,0.03-0.143,0.061-0.265,0.095
		C30.389,18.269,30.248,18.286,30.087,18.286z M29.755,17.125c0.156-0.005,0.299-0.015,0.429-0.03
		c0.13-0.015,0.243-0.041,0.339-0.077c0.096-0.037,0.171-0.086,0.227-0.148c0.055-0.062,0.085-0.143,0.09-0.243
		c0.001-0.024-0.002-0.05-0.011-0.077c-0.008-0.027-0.023-0.052-0.045-0.075c-0.022-0.023-0.053-0.042-0.092-0.057
		c-0.04-0.015-0.089-0.022-0.148-0.022c-0.094,0-0.183,0.02-0.267,0.061c-0.084,0.041-0.16,0.094-0.227,0.16
		c-0.068,0.066-0.126,0.143-0.176,0.231C29.823,16.935,29.784,17.028,29.755,17.125z"/>
	<path class="st1" d="M33.815,18.233H33.44l0.6-2.11h0.375L33.815,18.233z M34.364,15.741c-0.062,0-0.113-0.019-0.153-0.057
		c-0.04-0.038-0.058-0.091-0.055-0.158c0.004-0.087,0.034-0.155,0.09-0.205c0.056-0.05,0.118-0.075,0.185-0.075
		c0.062,0,0.113,0.02,0.155,0.059c0.041,0.039,0.06,0.094,0.057,0.164c-0.004,0.081-0.035,0.147-0.094,0.197
		C34.49,15.716,34.428,15.741,34.364,15.741z"/>
	<path class="st1" d="M35.434,18.233h-0.375l0.576-2.029c0.126-0.038,0.261-0.068,0.406-0.091c0.145-0.023,0.274-0.035,0.387-0.035
		c0.121,0,0.225,0.017,0.311,0.051c0.086,0.034,0.155,0.08,0.206,0.138c0.051,0.058,0.088,0.129,0.11,0.211
		c0.022,0.083,0.03,0.173,0.026,0.27c-0.003,0.062-0.011,0.128-0.025,0.197c-0.014,0.069-0.03,0.139-0.05,0.209l-0.307,1.08h-0.375
		l0.283-0.998c0.022-0.076,0.044-0.153,0.065-0.231c0.021-0.078,0.033-0.153,0.036-0.223c0.005-0.108-0.021-0.198-0.077-0.27
		c-0.056-0.072-0.165-0.108-0.326-0.108c-0.067,0-0.133,0.004-0.198,0.012c-0.065,0.008-0.119,0.019-0.163,0.032L35.434,18.233z"/>
	<path class="st1" d="M41.971,16.078c0.118,0,0.218,0.018,0.298,0.055c0.08,0.037,0.144,0.086,0.191,0.148
		c0.047,0.062,0.079,0.135,0.097,0.217c0.018,0.083,0.025,0.17,0.02,0.262c-0.003,0.059-0.01,0.124-0.023,0.193
		c-0.013,0.069-0.028,0.136-0.047,0.201l-0.307,1.08h-0.375l0.283-0.998c0.016-0.062,0.035-0.132,0.056-0.209
		c0.021-0.077,0.033-0.154,0.037-0.229c0.002-0.051-0.002-0.102-0.011-0.15c-0.01-0.049-0.028-0.091-0.055-0.126
		c-0.027-0.035-0.065-0.064-0.115-0.085c-0.05-0.022-0.113-0.033-0.188-0.033c-0.086,0-0.17,0.017-0.253,0.051
		c-0.082,0.034-0.151,0.068-0.207,0.103c0.004,0.038,0.007,0.075,0.009,0.112c0.002,0.037,0.003,0.072,0.001,0.108
		c-0.003,0.062-0.01,0.125-0.023,0.189c-0.012,0.064-0.027,0.126-0.043,0.189l-0.307,1.08h-0.375l0.283-0.998
		c0.016-0.062,0.034-0.133,0.054-0.211c0.02-0.078,0.031-0.157,0.035-0.235c0.002-0.051-0.001-0.101-0.009-0.148
		c-0.009-0.047-0.025-0.089-0.049-0.124c-0.024-0.035-0.057-0.063-0.099-0.083c-0.042-0.02-0.097-0.03-0.164-0.03
		c-0.067,0-0.133,0.004-0.196,0.012c-0.064,0.008-0.117,0.019-0.161,0.032l-0.509,1.786h-0.375l0.576-2.029
		c0.123-0.038,0.257-0.068,0.402-0.091c0.145-0.023,0.274-0.035,0.387-0.035c0.113,0,0.208,0.02,0.284,0.059
		c0.076,0.039,0.136,0.091,0.179,0.156c0.028-0.019,0.066-0.041,0.114-0.065c0.048-0.024,0.103-0.047,0.165-0.069
		c0.061-0.022,0.128-0.041,0.2-0.057C41.822,16.086,41.895,16.078,41.971,16.078z"/>
	<path class="st1" d="M44.2,18.286c-0.221,0-0.391-0.066-0.51-0.197c-0.119-0.131-0.174-0.312-0.163-0.542
		c0.007-0.157,0.037-0.322,0.089-0.495c0.052-0.173,0.13-0.333,0.234-0.479c0.103-0.146,0.234-0.267,0.392-0.361
		c0.158-0.095,0.345-0.142,0.564-0.142c0.221,0,0.391,0.066,0.51,0.197c0.119,0.131,0.174,0.312,0.163,0.542
		c-0.007,0.157-0.037,0.322-0.089,0.495c-0.052,0.173-0.13,0.333-0.234,0.479c-0.103,0.146-0.234,0.267-0.392,0.361
		C44.606,18.239,44.418,18.286,44.2,18.286z M44.279,17.965c0.121,0,0.231-0.035,0.33-0.105c0.099-0.07,0.183-0.16,0.254-0.27
		c0.071-0.109,0.127-0.231,0.168-0.363c0.041-0.133,0.064-0.261,0.07-0.386c0.006-0.138-0.019-0.248-0.074-0.329
		c-0.056-0.081-0.156-0.122-0.301-0.122c-0.121,0-0.231,0.035-0.33,0.106c-0.099,0.07-0.183,0.16-0.254,0.27
		c-0.071,0.109-0.127,0.231-0.168,0.363c-0.041,0.133-0.064,0.261-0.07,0.386c-0.006,0.138,0.018,0.248,0.074,0.329
		C44.034,17.925,44.134,17.965,44.279,17.965z"/>
	<path class="st1" d="M46.97,18.29c-0.202,0-0.348-0.045-0.438-0.134c-0.09-0.089-0.131-0.219-0.124-0.39
		c0.005-0.111,0.03-0.253,0.076-0.426l0.514-1.806l0.394-0.065l-0.187,0.653h0.715l-0.091,0.317h-0.715l-0.264,0.933
		c-0.038,0.127-0.059,0.238-0.063,0.333c-0.004,0.089,0.017,0.154,0.064,0.193c0.047,0.039,0.127,0.059,0.24,0.059
		c0.078,0,0.155-0.013,0.232-0.039c0.076-0.026,0.135-0.049,0.177-0.071l0.014,0.32c-0.041,0.024-0.111,0.051-0.209,0.079
		C47.205,18.276,47.093,18.29,46.97,18.29z"/>
	<path class="st1" d="M48.813,18.233h-0.375l0.6-2.11h0.375L48.813,18.233z M49.362,15.741c-0.062,0-0.113-0.019-0.153-0.057
		c-0.04-0.038-0.059-0.091-0.056-0.158c0.004-0.087,0.034-0.155,0.09-0.205c0.056-0.05,0.118-0.075,0.185-0.075
		c0.062,0,0.113,0.02,0.155,0.059c0.041,0.039,0.06,0.094,0.057,0.164c-0.004,0.081-0.035,0.147-0.094,0.197
		C49.488,15.716,49.426,15.741,49.362,15.741z"/>
	<path class="st1" d="M50.858,18.286c-0.221,0-0.391-0.066-0.51-0.197c-0.119-0.131-0.174-0.312-0.163-0.542
		c0.007-0.157,0.037-0.322,0.089-0.495c0.052-0.173,0.13-0.333,0.234-0.479c0.103-0.146,0.234-0.267,0.392-0.361
		c0.158-0.095,0.345-0.142,0.564-0.142c0.221,0,0.391,0.066,0.51,0.197c0.119,0.131,0.174,0.312,0.163,0.542
		c-0.007,0.157-0.037,0.322-0.089,0.495c-0.052,0.173-0.13,0.333-0.234,0.479c-0.103,0.146-0.234,0.267-0.392,0.361
		C51.264,18.239,51.076,18.286,50.858,18.286z M50.937,17.965c0.121,0,0.231-0.035,0.33-0.105c0.099-0.07,0.183-0.16,0.254-0.27
		c0.071-0.109,0.127-0.231,0.168-0.363c0.041-0.133,0.064-0.261,0.07-0.386c0.006-0.138-0.019-0.248-0.074-0.329
		c-0.056-0.081-0.156-0.122-0.301-0.122c-0.121,0-0.231,0.035-0.33,0.106c-0.099,0.07-0.183,0.16-0.254,0.27
		c-0.071,0.109-0.127,0.231-0.168,0.363c-0.041,0.133-0.064,0.261-0.07,0.386c-0.006,0.138,0.018,0.248,0.074,0.329
		C50.691,17.925,50.791,17.965,50.937,17.965z"/>
	<path class="st1" d="M53.286,18.233h-0.375l0.576-2.029c0.126-0.038,0.261-0.068,0.406-0.091c0.145-0.023,0.274-0.035,0.387-0.035
		c0.121,0,0.225,0.017,0.311,0.051c0.086,0.034,0.154,0.08,0.206,0.138c0.051,0.058,0.088,0.129,0.11,0.211
		c0.022,0.083,0.03,0.173,0.026,0.27c-0.003,0.062-0.011,0.128-0.025,0.197c-0.014,0.069-0.03,0.139-0.05,0.209l-0.307,1.08h-0.375
		l0.283-0.998c0.022-0.076,0.044-0.153,0.065-0.231c0.021-0.078,0.033-0.153,0.036-0.223c0.005-0.108-0.021-0.198-0.077-0.27
		c-0.056-0.072-0.165-0.108-0.326-0.108c-0.067,0-0.133,0.004-0.198,0.012c-0.065,0.008-0.119,0.019-0.163,0.032L53.286,18.233z"/>
</g>
<g>
	<path class="st1" d="M45.16,13.394c-0.015-0.306-0.032-0.611-0.05-0.906c-0.021-0.33-0.043-0.657-0.067-0.97
		c0,0-0.204-2.679-0.248-3.278c-0.044-0.596-0.107-1.202-0.188-1.801l-0.037-0.274l-0.139,0.239
		c-0.337,0.579-0.673,1.161-0.998,1.731c-0.324,0.568-1.657,3.234-1.714,3.348c-0.16,0.317-0.33,0.643-0.506,0.966
		c-0.168,0.308-0.331,0.626-0.484,0.946h-1.752c0.496-0.918,0.964-1.776,1.393-2.551c0.452-0.817,0.895-1.6,1.317-2.327
		c0.421-0.725,0.838-1.422,1.238-2.073c0.393-0.638,0.797-1.268,1.203-1.873h1.553c0.123,0.601,0.241,1.271,0.353,1.994
		C46.151,7.32,46.26,8.103,46.36,8.89c0.101,0.794,0.194,1.594,0.278,2.378c0.08,0.753,0.155,1.462,0.225,2.126H45.16z"/>
</g>
<g>
	<path class="st1" d="M54.586,13.394c-0.06-0.444-0.115-0.877-0.164-1.288c-0.052-0.432-0.101-0.867-0.145-1.293
		c-0.044-0.421-0.085-0.854-0.121-1.286c-0.037-0.439-0.071-0.894-0.103-1.351l-0.024-0.348L53.873,8.14
		c-0.459,0.918-0.917,1.826-1.36,2.698c-0.436,0.858-0.908,1.718-1.403,2.556h-1.624c-0.061-0.771-0.105-1.545-0.132-2.302
		c-0.028-0.78-0.042-1.588-0.042-2.403c0-0.699,0.012-1.405,0.036-2.097c0.023-0.671,0.054-1.351,0.092-2.022h1.709
		c-0.039,0.729-0.075,1.443-0.11,2.144c-0.036,0.731-0.054,1.501-0.054,2.287v0.898c0,0.306,0.008,0.614,0.024,0.916l0.018,0.342
		l0.161-0.302c0.226-0.425,0.464-0.876,0.714-1.353c0.252-0.48,0.5-0.962,0.738-1.432c0.241-0.476,0.473-0.942,0.69-1.387
		c0.145-0.297,0.416-0.972,0.634-1.515c0.095-0.238,0.18-0.448,0.234-0.578l0.998-0.01c0.016,0.31,0.059,1.021,0.125,2.073
		c0.028,0.445,0.06,0.916,0.097,1.399c0.037,0.492,0.076,0.976,0.115,1.438c0.041,0.482,0.081,0.929,0.121,1.328l0.034,0.341
		l0.147-0.31c0.211-0.445,0.427-0.928,0.643-1.434c0.216-0.507,0.436-1.042,0.654-1.589c0.217-0.545,0.435-1.106,0.648-1.666
		c0.207-0.547,0.405-1.082,0.589-1.591h1.791c-0.61,1.593-1.24,3.13-1.872,4.569c-0.641,1.46-1.339,2.891-2.074,4.255H54.586z"/>
</g>
<g>
	<path class="st1" d="M10.217,13.394c0.16-0.836,0.333-1.762,0.517-2.756c0.189-1.023,0.366-2.072,0.527-3.118l0.084-0.504
		l-0.26,0.442l-0.701,1.19C10.128,9.08,9.868,9.527,9.609,9.975c-0.26,0.45-0.512,0.88-0.749,1.28
		c-0.224,0.377-0.426,0.711-0.6,0.994H7.015c-0.038-0.248-0.083-0.553-0.133-0.907c-0.055-0.391-0.119-0.818-0.188-1.269
		C6.626,9.626,6.556,9.175,6.483,8.72C6.411,8.269,6.342,7.855,6.277,7.489L6.213,7.116l-0.12,0.362
		c-0.313,1.045-0.6,2.095-0.854,3.12c-0.247,1-0.477,1.932-0.69,2.796H2.92c0.178-0.68,0.373-1.404,0.579-2.156
		c0.22-0.801,0.452-1.612,0.689-2.411c0.237-0.8,0.475-1.581,0.707-2.32C5.12,5.792,5.336,5.141,5.537,4.57h1.548
		c0.045,0.224,0.102,0.525,0.171,0.917c0.076,0.425,0.157,0.902,0.242,1.416l0.26,1.587c0.089,0.542,0.169,1.038,0.242,1.489
		l0.041,0.255l0.134-0.221C8.447,9.567,8.748,9.077,9.07,8.557c0.322-0.52,0.641-1.032,0.955-1.535
		c0.32-0.511,0.621-0.986,0.894-1.41c0.269-0.417,0.502-0.767,0.695-1.043h1.515c-0.055,0.567-0.126,1.209-0.213,1.909
		c-0.092,0.738-0.197,1.516-0.314,2.313c-0.115,0.787-0.239,1.597-0.369,2.405c-0.124,0.772-0.249,1.511-0.373,2.196H10.217z"/>
</g>
<g>
	<path class="st1" d="M17.756,13.576c-0.476,0-0.916-0.085-1.307-0.252c-0.39-0.167-0.727-0.41-1.001-0.723
		c-0.276-0.314-0.488-0.703-0.63-1.156c-0.143-0.456-0.205-0.979-0.182-1.555c0.026-0.663,0.16-1.332,0.399-1.987
		c0.239-0.655,0.573-1.252,0.992-1.775c0.418-0.521,0.928-0.951,1.516-1.277c0.585-0.324,1.247-0.489,1.969-0.489
		c0.476,0,0.916,0.085,1.307,0.252c0.39,0.167,0.727,0.411,1.001,0.723c0.276,0.314,0.487,0.703,0.63,1.156
		c0.143,0.456,0.204,0.979,0.182,1.555c-0.026,0.663-0.158,1.334-0.393,1.994c-0.235,0.659-0.567,1.258-0.986,1.78
		c-0.418,0.521-0.928,0.948-1.515,1.27C19.153,13.414,18.486,13.576,17.756,13.576z M19.25,5.915c-0.388,0-0.757,0.11-1.097,0.327
		c-0.335,0.213-0.635,0.502-0.893,0.857c-0.256,0.353-0.463,0.764-0.616,1.222c-0.153,0.457-0.24,0.935-0.258,1.418
		c-0.026,0.666,0.086,1.215,0.333,1.632c0.256,0.432,0.692,0.652,1.298,0.652c0.387,0,0.757-0.11,1.097-0.327
		c0.335-0.214,0.636-0.502,0.893-0.857c0.256-0.353,0.463-0.762,0.616-1.216c0.152-0.453,0.239-0.932,0.259-1.425
		c0.026-0.666-0.086-1.215-0.333-1.632C20.293,6.134,19.856,5.915,19.25,5.915z"/>
</g>
<g>
	<path class="st1" d="M25.971,13.511c-0.334,0-0.724-0.022-1.16-0.065c-0.402-0.04-0.792-0.101-1.161-0.184l2.404-8.55
		c0.44-0.088,0.867-0.152,1.269-0.189c0.42-0.039,0.803-0.058,1.138-0.058c0.582,0,1.105,0.085,1.554,0.254
		c0.446,0.168,0.823,0.409,1.12,0.718c0.297,0.309,0.518,0.682,0.656,1.108c0.14,0.429,0.195,0.912,0.165,1.435
		c-0.049,0.86-0.226,1.641-0.526,2.321c-0.299,0.678-0.71,1.261-1.221,1.731c-0.512,0.47-1.13,0.838-1.84,1.093
		C27.658,13.382,26.851,13.511,25.971,13.511z M28.169,5.98c-0.244,0-0.497,0.013-0.75,0.04l-0.064,0.007l-1.66,5.92l0.113,0.011
		c0.089,0.009,0.182,0.016,0.276,0.02c0.09,0.004,0.216,0.007,0.385,0.007c0.534,0,1.029-0.09,1.471-0.267
		c0.444-0.178,0.831-0.437,1.152-0.77c0.32-0.333,0.58-0.746,0.772-1.227c0.191-0.48,0.306-1.026,0.34-1.623
		c0.018-0.311-0.004-0.598-0.064-0.853c-0.062-0.261-0.176-0.489-0.341-0.678c-0.165-0.189-0.386-0.336-0.656-0.436
		C28.878,6.03,28.55,5.98,28.169,5.98z"/>
</g>
<path class="st1" d="M34.383,13.576c-0.422,0-0.824-0.07-1.194-0.209c-0.344-0.128-0.65-0.3-0.911-0.51l0.821-1.348
	c0.167,0.124,0.349,0.237,0.544,0.335c0.236,0.119,0.522,0.179,0.85,0.179c0.235,0,0.444-0.03,0.622-0.089
	c0.182-0.061,0.343-0.16,0.481-0.296c0.135-0.133,0.255-0.306,0.355-0.514c0.097-0.202,0.188-0.453,0.27-0.744l0.987-3.616
	l0.299-1.109c0.206-0.525,0.615-1.059,2.058-1.089l-0.309,1.062l-0.306,1.014L38.94,6.665l-1.136,4.067
	c-0.119,0.434-0.27,0.833-0.448,1.186c-0.176,0.349-0.398,0.65-0.661,0.897c-0.261,0.246-0.583,0.436-0.954,0.565
	C35.367,13.51,34.909,13.576,34.383,13.576z"/>
<g>
	<path class="st0" d="M83.347,2.655c0,0.173-0.028,0.327-0.085,0.465c-0.057,0.137-0.133,0.253-0.228,0.347
		c-0.095,0.094-0.206,0.167-0.332,0.216c-0.126,0.05-0.258,0.075-0.396,0.075c-0.138,0-0.27-0.025-0.396-0.075
		c-0.126-0.05-0.237-0.122-0.332-0.216c-0.095-0.094-0.172-0.21-0.228-0.347c-0.057-0.137-0.085-0.292-0.085-0.465
		c0-0.173,0.028-0.328,0.085-0.465c0.057-0.137,0.133-0.253,0.228-0.347s0.206-0.167,0.332-0.216
		c0.126-0.05,0.258-0.075,0.396-0.075c0.138,0,0.27,0.025,0.396,0.075c0.126,0.05,0.237,0.122,0.332,0.216
		c0.095,0.094,0.172,0.21,0.228,0.347C83.319,2.328,83.347,2.482,83.347,2.655z M83.125,2.655c0-0.134-0.02-0.256-0.061-0.367
		c-0.041-0.111-0.097-0.206-0.169-0.285c-0.072-0.079-0.158-0.14-0.259-0.183c-0.101-0.043-0.211-0.064-0.331-0.064
		c-0.12,0-0.23,0.021-0.331,0.064s-0.187,0.104-0.259,0.183c-0.072,0.079-0.129,0.174-0.169,0.285
		c-0.041,0.111-0.061,0.233-0.061,0.367c0,0.134,0.02,0.256,0.061,0.367c0.041,0.111,0.097,0.206,0.169,0.285
		c0.072,0.079,0.158,0.14,0.259,0.183s0.211,0.064,0.331,0.064c0.12,0,0.23-0.021,0.331-0.064c0.101-0.043,0.187-0.104,0.259-0.183
		c0.072-0.079,0.128-0.174,0.169-0.285C83.105,2.912,83.125,2.789,83.125,2.655z M82.607,3.261c-0.047-0.091-0.099-0.178-0.157-0.26
		c-0.058-0.082-0.108-0.148-0.151-0.196h-0.204v0.457h-0.216V2.079c0.055-0.012,0.113-0.021,0.174-0.027
		c0.061-0.006,0.117-0.009,0.168-0.009c0.175,0,0.308,0.033,0.399,0.097c0.091,0.065,0.137,0.164,0.137,0.296
		c0,0.075-0.02,0.141-0.059,0.196c-0.04,0.056-0.096,0.099-0.169,0.129c0.02,0.024,0.044,0.055,0.07,0.091s0.054,0.077,0.082,0.122
		c0.028,0.045,0.057,0.091,0.085,0.14c0.028,0.049,0.054,0.097,0.076,0.146H82.607z M82.095,2.628h0.116
		c0.091,0,0.168-0.013,0.229-0.038c0.061-0.025,0.091-0.078,0.091-0.157c0-0.075-0.029-0.127-0.087-0.157
		c-0.058-0.029-0.127-0.044-0.209-0.044c-0.022,0-0.046,0.001-0.07,0.002s-0.048,0.003-0.07,0.005V2.628z"/>
</g>
</svg>
